<svg width="512" height="512" viewBox="0 0 512 512" fill="none" xmlns="http://www.w3.org/2000/svg">
  <!-- Background aubergine -->
  <rect width="512" height="512" rx="115" fill="#4A2142"/>
  
  <!-- Barcode container -->
  <rect x="96" y="180" width="320" height="180" rx="12" fill="#FFFFFF"/>
  
  <!-- Barcode lines (CODE128 style) -->
  <rect x="110" y="200" width="4" height="140" fill="#000000"/>
  <rect x="120" y="200" width="2" height="140" fill="#000000"/>
  <rect x="128" y="200" width="3" height="140" fill="#000000"/>
  <rect x="136" y="200" width="1" height="140" fill="#000000"/>
  <rect x="142" y="200" width="2" height="140" fill="#000000"/>
  <rect x="150" y="200" width="1" height="140" fill="#000000"/>
  <rect x="156" y="200" width="2" height="140" fill="#000000"/>
  <rect x="164" y="200" width="3" height="140" fill="#000000"/>
  <rect x="172" y="200" width="1" height="140" fill="#000000"/>
  <rect x="178" y="200" width="2" height="140" fill="#000000"/>
  <rect x="186" y="200" width="1" height="140" fill="#000000"/>
  <rect x="192" y="200" width="4" height="140" fill="#000000"/>
  <rect x="202" y="200" width="2" height="140" fill="#000000"/>
  <rect x="210" y="200" width="3" height="140" fill="#000000"/>
  <rect x="218" y="200" width="1" height="140" fill="#000000"/>
  <rect x="224" y="200" width="2" height="140" fill="#000000"/>
  <rect x="232" y="200" width="1" height="140" fill="#000000"/>
  <rect x="238" y="200" width="2" height="140" fill="#000000"/>
  <rect x="246" y="200" width="3" height="140" fill="#000000"/>
  <rect x="254" y="200" width="1" height="140" fill="#000000"/>
  <rect x="260" y="200" width="2" height="140" fill="#000000"/>
  <rect x="268" y="200" width="1" height="140" fill="#000000"/>
  <rect x="274" y="200" width="4" height="140" fill="#000000"/>
  <rect x="284" y="200" width="2" height="140" fill="#000000"/>
  <rect x="292" y="200" width="3" height="140" fill="#000000"/>
  <rect x="300" y="200" width="1" height="140" fill="#000000"/>
  <rect x="306" y="200" width="2" height="140" fill="#000000"/>
  <rect x="314" y="200" width="1" height="140" fill="#000000"/>
  <rect x="320" y="200" width="2" height="140" fill="#000000"/>
  <rect x="328" y="200" width="3" height="140" fill="#000000"/>
  <rect x="336" y="200" width="1" height="140" fill="#000000"/>
  <rect x="342" y="200" width="2" height="140" fill="#000000"/>
  <rect x="350" y="200" width="1" height="140" fill="#000000"/>
  <rect x="356" y="200" width="4" height="140" fill="#000000"/>
  <rect x="366" y="200" width="2" height="140" fill="#000000"/>
  <rect x="374" y="200" width="3" height="140" fill="#000000"/>
  <rect x="382" y="200" width="1" height="140" fill="#000000"/>
  <rect x="388" y="200" width="2" height="140" fill="#000000"/>
  
  <!-- Token text P0042 in apricot -->
  <text x="256" y="400" font-family="sans-serif" font-size="56" font-weight="bold" fill="#F4A460" text-anchor="middle">P0042</text>
</svg>
